#!OML:ASF F:\VICON\USERDATA\INSTALL\rory3\rory3.ASF
:FULLY-SPECIFIED
:DEGREES
859
root 3.04219 16.7654 0.139447 16.0017 4.52938 10.7863
lowerback -6.77986 1.96557 1.08642
upperback -2.15082 2.73444 -7.17428
thorax 1.97931 1.3894 -7.90742
lowerneck -2.57687 14.5803 5.10515
upperneck 47.6728 24.3031 -1.65919
head 20.1678 10.6005 2.43682
rclavicle -1.73937e-015 -1.74931e-014
rhumerus -36.5344 4.15446 -93.0054
rradius 42.8969
rwrist -39.5571
rhand -9.45199 -49.0925
rfingers 7.12502
rthumb 16.5113 -78.4099
lclavicle -1.73937e-015 -1.74931e-014
lhumerus -27.0996 -20.5843 82.287
lradius 40.9359
lwrist 74.0245
lhand -38.823 -13.3505
lfingers 7.12502
lthumb -11.833 16.2952
rfemur -51.1348 23.9665 -6.79927
rtibia 73.7386
rfoot 5.8045 9.46464
rtoes -36.6069
lfemur -32.0844 -7.30007 -36.239
ltibia 38.0422
lfoot -17.2623 11.4208
ltoes 5.46177
860
root 3.03547 16.7531 0.132681 15.9459 4.49794 10.7585
lowerback -6.55249 1.96004 1.04457
upperback -2.24308 2.71788 -7.16506
thorax 1.75161 1.37419 -7.88168
lowerneck -2.32888 14.5651 5.24931
upperneck 47.6295 24.3057 -1.78469
head 20.1363 10.6263 2.33399
rclavicle -3.26504e-014 2.46493e-014
rhumerus -36.7213 4.13787 -93.0409
rradius 42.964
rwrist -39.5364
rhand -9.42305 -49.0658
rfingers 7.12502
rthumb 16.5392 -78.3809
lclavicle -3.26504e-014 2.46493e-014
lhumerus -27.2409 -20.6143 82.3214
lradius 40.9458
lwrist 74.1002
lhand -38.9501 -13.1234
lfingers 7.12502
lthumb -11.9555 16.5152
rfemur -50.9826 23.9383 -6.63239
rtibia 73.7046
rfoot 4.44738 9.99316
rtoes -39.6012
lfemur -32.2318 -7.26483 -36.1753
ltibia 38.2766
lfoot -17.3757 11.3185
ltoes 6.16014
861
root 3.03082 16.7452 0.127975 15.8935 4.5144 10.7094
lowerback -6.48129 1.95841 1.06409
upperback -2.21142 2.71366 -7.1456
thorax 1.74416 1.3725 -7.87371
lowerneck -2.37362 14.5637 5.22143
upperneck 47.6512 24.2993 -1.75697
head 20.15 10.6185 2.35497
rclavicle -5.46658e-015 -1.47101e-014
rhumerus -36.6803 4.07456 -93.0056
rradius 42.9482
rwrist -39.3322
rhand -8.96782 -49.9128
rfingers 7.12502
rthumb 16.9774 -79.1908
lclavicle -5.46658e-015 -1.47101e-014
lhumerus -27.1994 -20.631 82.3108
lradius 41.0082
lwrist 74.2163
lhand -39.1602 -12.8257
lfingers 7.12502
lthumb -12.1581 16.801
rfemur -50.7877 23.8995 -6.44874
rtibia 73.6702
rfoot 3.32388 10.4455
rtoes -42.2211
lfemur -32.3312 -7.28398 -36.085
ltibia 38.3964
lfoot -17.4508 11.2029
ltoes 7.06232
862
root 3.02998 16.747 0.123343 15.8703 4.54047 10.6892
lowerback -6.47394 1.94212 1.07465
upperback -2.13833 2.6943 -7.12523
thorax 1.81279 1.36558 -7.85864
lowerneck -2.50486 14.5875 5.13592
upperneck 47.6603 24.3316 -1.71514
head 20.1642 10.6138 2.40488
rclavicle 4.96962e-014 -3.81667e-014
rhumerus -36.5065 4.13088 -92.9681
rradius 42.8465
rwrist -39.2254
rhand -8.07484 -51.8588
rfingers 7.12502
rthumb 17.8368 -81.0608
lclavicle 4.96962e-014 -3.81667e-014
lhumerus -27.0649 -20.5903 82.2874
lradius 40.9912
lwrist 74.1921
lhand -39.3064 -12.569
lfingers 7.12502
lthumb -12.2991 17.0493
rfemur -50.7619 23.9227 -6.4192
rtibia 73.6525
rfoot 3.29133 10.4366
rtoes -42.3996
lfemur -32.4114 -7.30462 -36.0481
ltibia 38.5252
lfoot -17.5168 11.1738
ltoes 7.29209
863
root 3.02953 16.7446 0.120223 15.9031 4.53557 10.7728
lowerback -6.47511 1.93865 0.99499
upperback -2.12412 2.69631 -7.15441
thorax 1.82639 1.36717 -7.84347
lowerneck -2.58824 14.587 5.10803
upperneck 47.6805 24.3297 -1.69058
head 20.1881 10.6049 2.43011
rclavicle 2.97183e-014 -5.84427e-014
rhumerus -36.3569 4.25954 -93.018
rradius 42.6587
rwrist -39.5006
rhand -9.17385 -48.6871
rfingers 7.12502
rthumb 16.7791 -77.9821
lclavicle 2.97183e-014 -5.84427e-014
lhumerus -27.0265 -20.6182 82.2844
lradius 40.9631
lwrist 74.1582
lhand -39.256 -12.6071
lfingers 7.12502
lthumb -12.2505 17.0141
rfemur -50.7907 23.8862 -6.51963
rtibia 73.6725
rfoot 3.09552 10.4618
rtoes -42.8537
lfemur -32.4419 -7.30666 -36.1369
ltibia 38.5613
lfoot -17.5202 11.1776
ltoes 7.17599
864
root 3.02796 16.7411 0.119255 15.9818 4.50528 10.8503
lowerback -6.5557 1.95351 0.909564
upperback -2.13866 2.72408 -7.1833
thorax 1.85781 1.3815 -7.82053
lowerneck -2.63772 14.5705 5.08402
upperneck 47.7259 24.3046 -1.6569
head 20.2182 10.5898 2.45266
rclavicle -3.23522e-014 1.66979e-014
rhumerus -36.3065 4.31894 -93.0636
rradius 42.5522
rwrist -39.6588
rhand -8.7711 -50.8561
rfingers 7.12502
rthumb 17.1668 -80.1177
lclavicle -3.23522e-014 1.66979e-014
lhumerus -27.0363 -20.6627 82.3043
lradius 40.9741
lwrist 74.1815
lhand -39.1759 -12.702
lfingers 7.12502
lthumb -12.1732 16.9238
rfemur -50.9121 23.8498 -6.65225
rtibia 73.6984
rfoot 3.1476 10.4237
rtoes -42.7156
lfemur -32.4878 -7.29878 -36.2171
ltibia 38.5361
lfoot -17.5121 11.2098
ltoes 6.97668
865
root 3.02923 16.7432 0.122813 16.0134 4.48077 10.8859
lowerback -6.66567 1.95918 0.879393
upperback -2.14181 2.73685 -7.18689
thorax 1.91656 1.38896 -7.80278
lowerneck -2.61147 14.5628 5.03871
upperneck 47.7368 24.2967 -1.64547
head 20.2063 10.5827 2.45855
rclavicle 7.15625e-014 -2.74323e-014
rhumerus -36.345 4.3037 -93.031
rradius 42.5651
rwrist -39.4417
rhand -8.4918 -51.1524
rfingers 7.12502
rthumb 17.4356 -80.3904
lclavicle 7.15625e-014 -2.74323e-014
lhumerus -27.0656 -20.657 82.3477
lradius 40.9785
lwrist 74.0997
lhand -39.3581 -12.4269
lfingers 7.12502
lthumb -12.3489 17.1884
rfemur -50.9436 23.8495 -6.72035
rtibia 73.6867
rfoot 3.31992 10.3346
rtoes -42.2703
lfemur -32.4951 -7.29479 -36.2653
ltibia 38.5212
lfoot -17.5885 11.2181
ltoes 7.07822
866
root 3.03178 16.7474 0.127091 15.9746 4.50525 10.8019
lowerback -6.7078 1.97628 0.993759
upperback -2.13599 2.75361 -7.17283
thorax 1.95307 1.39856 -7.85149
lowerneck -2.57535 14.5485 5.02128
upperneck 47.7298 24.2627 -1.62198
head 20.1789 10.5732 2.45879
rclavicle 1.90833e-014 -3.4191e-014
rhumerus -36.3442 4.23786 -92.9885
rradius 42.5349
rwrist -39.2897
rhand -8.1814 -51.5083
rfingers 7.12502
rthumb 17.7343 -80.7196
lclavicle 1.90833e-014 -3.4191e-014
lhumerus -27.1605 -20.679 82.377
lradius 41.0642
lwrist 74.0236
lhand -39.6843 -12.2945
lfingers 7.12502
lthumb -12.6635 17.3015
rfemur -50.8384 23.8685 -6.58745
rtibia 73.6472
rfoot 3.21952 10.2923
rtoes -42.5019
lfemur -32.4568 -7.28748 -36.1842
ltibia 38.5195
lfoot -17.6308 11.1661
ltoes 7.25903
867
root 3.03204 16.7474 0.124386 15.9754 4.50039 10.7105
lowerback -6.66882 1.99773 1.08994
upperback -2.15391 2.77403 -7.16881
thorax 1.91983 1.40811 -7.90265
lowerneck -2.61204 14.544 5.05779
upperneck 47.7616 24.2484 -1.59943
head 20.2119 10.5711 2.46931
rclavicle -8.29926e-015 -2.06736e-014
rhumerus -36.3502 4.23185 -93.0307
rradius 42.5357
rwrist -39.4801
rhand -8.52681 -51.2021
rfingers 7.12502
rthumb 17.4019 -80.4431
lclavicle -8.29926e-015 -2.06736e-014
lhumerus -27.202 -20.713 82.3568
lradius 41.1174
lwrist 74.125
lhand -39.7811 -12.5267
lfingers 7.12502
lthumb -12.7568 17.0636
rfemur -50.8724 23.8754 -6.49172
rtibia 73.6267
rfoot 3.11782 10.3042
rtoes -42.7003
lfemur -32.5171 -7.2768 -36.0799
ltibia 38.5232
lfoot -17.5533 11.151
ltoes 7.23575
868
root 3.03411 16.7466 0.120472 16.0244 4.50098 10.7363
lowerback -6.65825 2.00963 1.11171
upperback -2.18357 2.78796 -7.20789
thorax 1.88805 1.4142 -7.95737
lowerneck -2.61289 14.5279 5.11913
upperneck 47.7615 24.2257 -1.62294
head 20.2295 10.5683 2.44859
rclavicle -2.28602e-015 5.1684e-014
rhumerus -36.4137 4.2245 -93.0987
rradius 42.5491
rwrist -39.6493
rhand -8.89256 -50.675
rfingers 7.12502
rthumb 17.0499 -79.9468
lclavicle -2.28602e-015 5.1684e-014
lhumerus -27.2217 -20.7604 82.3324
lradius 41.1372
lwrist 74.2448
lhand -39.7382 -12.4898
lfingers 7.12502
lthumb -12.7154 17.103
rfemur -50.9439 23.8379 -6.56657
rtibia 73.6132
rfoot 3.16844 10.3614
rtoes -42.4539
lfemur -32.5846 -7.30067 -36.1149
ltibia 38.5358
lfoot -17.5226 11.1951
ltoes 7.18205
